<mxfile host="app.diagrams.net" modified="2023-08-31T07:36:58.635Z" agent="Mozilla/5.0 (Macintosh; Intel Mac OS X 10_15_7) AppleWebKit/537.36 (KHTML, like Gecko) Chrome/116.0.0.0 Safari/537.36" etag="i3Z7m-8e72LTYTi6Z1e8" version="21.6.9" type="github">
  <diagram id="C5RBs43oDa-KdzZeNtuy" name="Page-1">
    <mxGraphModel dx="1546" dy="745" grid="1" gridSize="10" guides="1" tooltips="1" connect="1" arrows="1" fold="1" page="1" pageScale="1" pageWidth="827" pageHeight="1169" math="0" shadow="0">
      <root>
        <mxCell id="WIyWlLk6GJQsqaUBKTNV-0" />
        <mxCell id="WIyWlLk6GJQsqaUBKTNV-1" parent="WIyWlLk6GJQsqaUBKTNV-0" />
        <mxCell id="64JGUatnsQ0O7H3xuFMK-0" value="Analytics" style="swimlane;fontStyle=1;align=center;verticalAlign=top;childLayout=stackLayout;horizontal=1;startSize=26;horizontalStack=0;resizeParent=1;resizeParentMax=0;resizeLast=0;collapsible=1;marginBottom=0;whiteSpace=wrap;html=1;" vertex="1" parent="WIyWlLk6GJQsqaUBKTNV-1">
          <mxGeometry x="100" y="190" width="220" height="210" as="geometry" />
        </mxCell>
        <mxCell id="64JGUatnsQ0O7H3xuFMK-1" value="- store: storage.AnalyticsHandler&lt;br&gt;- poolSize: int&lt;br&gt;- recordsChan: chan *AnalyticsRecord&lt;br&gt;- workerBufferSize: uint64&lt;br&gt;- recordsBufferFlushInterval: uint64&lt;br&gt;- shouldStop: uint32&lt;br&gt;- poolWg: sync.WaitGroup" style="text;strokeColor=none;fillColor=none;align=left;verticalAlign=top;spacingLeft=4;spacingRight=4;overflow=hidden;rotatable=0;points=[[0,0.5],[1,0.5]];portConstraint=eastwest;whiteSpace=wrap;html=1;" vertex="1" parent="64JGUatnsQ0O7H3xuFMK-0">
          <mxGeometry y="26" width="220" height="104" as="geometry" />
        </mxCell>
        <mxCell id="64JGUatnsQ0O7H3xuFMK-2" value="" style="line;strokeWidth=1;fillColor=none;align=left;verticalAlign=middle;spacingTop=-1;spacingLeft=3;spacingRight=3;rotatable=0;labelPosition=right;points=[];portConstraint=eastwest;strokeColor=inherit;" vertex="1" parent="64JGUatnsQ0O7H3xuFMK-0">
          <mxGeometry y="130" width="220" height="8" as="geometry" />
        </mxCell>
        <mxCell id="64JGUatnsQ0O7H3xuFMK-3" value="+ Start(): void&lt;br&gt;+ Stop(): void&lt;br&gt;+ RecordHit(*AnalyticsRecord): error&lt;br&gt;- recordWorker(): void" style="text;strokeColor=none;fillColor=none;align=left;verticalAlign=top;spacingLeft=4;spacingRight=4;overflow=hidden;rotatable=0;points=[[0,0.5],[1,0.5]];portConstraint=eastwest;whiteSpace=wrap;html=1;" vertex="1" parent="64JGUatnsQ0O7H3xuFMK-0">
          <mxGeometry y="138" width="220" height="72" as="geometry" />
        </mxCell>
        <mxCell id="64JGUatnsQ0O7H3xuFMK-4" value="&lt;span style=&quot;font-weight: normal;&quot;&gt;«interface»&lt;/span&gt;&lt;br style=&quot;border-color: var(--border-color); font-weight: 400;&quot;&gt;&lt;b style=&quot;border-color: var(--border-color);&quot;&gt;AnalyticsHandler&lt;/b&gt;" style="swimlane;fontStyle=1;align=center;verticalAlign=top;childLayout=stackLayout;horizontal=1;startSize=40;horizontalStack=0;resizeParent=1;resizeParentMax=0;resizeLast=0;collapsible=1;marginBottom=0;whiteSpace=wrap;html=1;" vertex="1" parent="WIyWlLk6GJQsqaUBKTNV-1">
          <mxGeometry x="420" y="190" width="270" height="130" as="geometry" />
        </mxCell>
        <mxCell id="64JGUatnsQ0O7H3xuFMK-7" value="+ Connect(): bool&lt;br&gt;+ AppendToSetPipelined(): string,[][]byte&lt;br&gt;+ GetAndDeleteSet(string): []interface{]&lt;br&gt;+ SetExp(string,time.Duration): error&lt;br&gt;+ GetExp(string)(int64,error)" style="text;strokeColor=none;fillColor=none;align=left;verticalAlign=top;spacingLeft=4;spacingRight=4;overflow=hidden;rotatable=0;points=[[0,0.5],[1,0.5]];portConstraint=eastwest;whiteSpace=wrap;html=1;" vertex="1" parent="64JGUatnsQ0O7H3xuFMK-4">
          <mxGeometry y="40" width="270" height="90" as="geometry" />
        </mxCell>
        <mxCell id="64JGUatnsQ0O7H3xuFMK-9" value="AnalyticsOptions" style="swimlane;fontStyle=1;align=center;verticalAlign=top;childLayout=stackLayout;horizontal=1;startSize=26;horizontalStack=0;resizeParent=1;resizeParentMax=0;resizeLast=0;collapsible=1;marginBottom=0;whiteSpace=wrap;html=1;" vertex="1" parent="WIyWlLk6GJQsqaUBKTNV-1">
          <mxGeometry x="100" y="430" width="260" height="170" as="geometry" />
        </mxCell>
        <mxCell id="64JGUatnsQ0O7H3xuFMK-10" value="+ PoolSize: int&lt;br&gt;+ RecordsBufferSize: uint64&lt;br&gt;+ FlushInterval: uint64&lt;br&gt;+ StorageExpirationTime: time.Duration&lt;br&gt;+ Enable: bool&lt;br&gt;+ EnableDetailedRecording: bool" style="text;strokeColor=none;fillColor=none;align=left;verticalAlign=top;spacingLeft=4;spacingRight=4;overflow=hidden;rotatable=0;points=[[0,0.5],[1,0.5]];portConstraint=eastwest;whiteSpace=wrap;html=1;" vertex="1" parent="64JGUatnsQ0O7H3xuFMK-9">
          <mxGeometry y="26" width="260" height="94" as="geometry" />
        </mxCell>
        <mxCell id="64JGUatnsQ0O7H3xuFMK-11" value="" style="line;strokeWidth=1;fillColor=none;align=left;verticalAlign=middle;spacingTop=-1;spacingLeft=3;spacingRight=3;rotatable=0;labelPosition=right;points=[];portConstraint=eastwest;strokeColor=inherit;" vertex="1" parent="64JGUatnsQ0O7H3xuFMK-9">
          <mxGeometry y="120" width="260" height="8" as="geometry" />
        </mxCell>
        <mxCell id="64JGUatnsQ0O7H3xuFMK-12" value="+ Validate(): []error&lt;br&gt;+ AddFlags(*pflag.FlagSet): void" style="text;strokeColor=none;fillColor=none;align=left;verticalAlign=top;spacingLeft=4;spacingRight=4;overflow=hidden;rotatable=0;points=[[0,0.5],[1,0.5]];portConstraint=eastwest;whiteSpace=wrap;html=1;" vertex="1" parent="64JGUatnsQ0O7H3xuFMK-9">
          <mxGeometry y="128" width="260" height="42" as="geometry" />
        </mxCell>
        <mxCell id="64JGUatnsQ0O7H3xuFMK-13" value="RedisCluster" style="swimlane;fontStyle=1;align=center;verticalAlign=top;childLayout=stackLayout;horizontal=1;startSize=26;horizontalStack=0;resizeParent=1;resizeParentMax=0;resizeLast=0;collapsible=1;marginBottom=0;whiteSpace=wrap;html=1;" vertex="1" parent="WIyWlLk6GJQsqaUBKTNV-1">
          <mxGeometry x="414" y="430" width="270" height="80" as="geometry" />
        </mxCell>
        <mxCell id="64JGUatnsQ0O7H3xuFMK-14" value="+ KeyPrefix: string&lt;br&gt;+ HashKeys: bool&lt;br&gt;+ IsCache: bool" style="text;strokeColor=none;fillColor=none;align=left;verticalAlign=top;spacingLeft=4;spacingRight=4;overflow=hidden;rotatable=0;points=[[0,0.5],[1,0.5]];portConstraint=eastwest;whiteSpace=wrap;html=1;" vertex="1" parent="64JGUatnsQ0O7H3xuFMK-13">
          <mxGeometry y="26" width="270" height="54" as="geometry" />
        </mxCell>
        <mxCell id="64JGUatnsQ0O7H3xuFMK-17" value="" style="endArrow=block;dashed=1;endFill=0;endSize=12;html=1;rounded=0;entryX=0.47;entryY=1;entryDx=0;entryDy=0;entryPerimeter=0;exitX=0.474;exitY=-0.037;exitDx=0;exitDy=0;exitPerimeter=0;" edge="1" parent="WIyWlLk6GJQsqaUBKTNV-1" source="64JGUatnsQ0O7H3xuFMK-13" target="64JGUatnsQ0O7H3xuFMK-7">
          <mxGeometry width="160" relative="1" as="geometry">
            <mxPoint x="330" y="380" as="sourcePoint" />
            <mxPoint x="490" y="380" as="targetPoint" />
          </mxGeometry>
        </mxCell>
        <mxCell id="64JGUatnsQ0O7H3xuFMK-18" value="" style="endArrow=open;endSize=12;dashed=1;html=1;rounded=0;exitX=0.995;exitY=0.404;exitDx=0;exitDy=0;exitPerimeter=0;entryX=-0.011;entryY=0.422;entryDx=0;entryDy=0;entryPerimeter=0;" edge="1" parent="WIyWlLk6GJQsqaUBKTNV-1" source="64JGUatnsQ0O7H3xuFMK-1" target="64JGUatnsQ0O7H3xuFMK-7">
          <mxGeometry width="160" relative="1" as="geometry">
            <mxPoint x="330" y="380" as="sourcePoint" />
            <mxPoint x="490" y="380" as="targetPoint" />
          </mxGeometry>
        </mxCell>
      </root>
    </mxGraphModel>
  </diagram>
</mxfile>
